<svg width="130" height="39" viewBox="0 0 130 39" fill="none" xmlns="http://www.w3.org/2000/svg">
<rect width="130" height="39" rx="19.5" fill="black"/>
<path d="M22.7241 35.509C18.7655 35.509 15.839 34.1659 13.9445 31.4797C12.0783 28.7934 11.1452 25.0328 11.1452 20.1976C11.1452 15.3624 12.0783 11.6017 13.9445 8.91552C15.839 6.22931 18.7655 4.88621 22.7241 4.88621C26.6828 4.88621 29.5952 6.22931 31.4614 8.91552C33.3559 11.6017 34.3031 15.3624 34.3031 20.1976C34.3031 25.0328 33.3559 28.7934 31.4614 31.4797C29.5952 34.1659 26.6828 35.509 22.7241 35.509ZM22.7241 30.3769C24.5338 30.3769 25.7779 29.7124 26.4566 28.3834C27.1634 27.0262 27.5169 25.1459 27.5169 22.7424V17.6103C27.5169 15.2352 27.1634 13.3831 26.4566 12.0541C25.7779 10.6969 24.5338 10.0183 22.7241 10.0183C20.9145 10.0183 19.6562 10.6969 18.9493 12.0541C18.2707 13.3831 17.9314 15.2352 17.9314 17.6103V22.7848C17.9314 25.16 18.2707 27.0262 18.9493 28.3834C19.6562 29.7124 20.9145 30.3769 22.7241 30.3769ZM40.2669 35H33.9896V5.39517H45.4414C46.8834 5.39517 48.17 5.62138 49.301 6.07379C50.4321 6.49793 51.3793 7.12 52.1427 7.94C52.9345 8.76 53.5283 9.74966 53.9241 10.909C54.32 12.0683 54.5179 13.369 54.5179 14.811C54.5179 16.9034 54.0655 18.699 53.1607 20.1976C52.2558 21.6962 50.9693 22.6859 49.301 23.1666L55.1117 35H48.1558L43.1934 24.0148H40.2669V35ZM43.9145 19.0948C45.4131 19.0948 46.4452 18.8121 47.0107 18.2466C47.6045 17.681 47.9014 16.7479 47.9014 15.4472V14.1748C47.9014 12.8741 47.6045 11.941 47.0107 11.3755C46.4452 10.81 45.4131 10.5272 43.9145 10.5272H40.2669V19.0948H43.9145ZM55.4344 35V5.39517H61.8389V29.7831H74.5631V35H55.4344ZM85.0227 35.509C81.0641 35.509 78.1375 34.1659 76.2431 31.4797C74.3768 28.7934 73.4437 25.0328 73.4437 20.1976C73.4437 15.3624 74.3768 11.6017 76.2431 8.91552C78.1375 6.22931 81.0641 4.88621 85.0227 4.88621C88.9813 4.88621 91.8937 6.22931 93.76 8.91552C95.6544 11.6017 96.6017 15.3624 96.6017 20.1976C96.6017 25.0328 95.6544 28.7934 93.76 31.4797C91.8937 34.1659 88.9813 35.509 85.0227 35.509ZM85.0227 30.3769C86.8324 30.3769 88.0765 29.7124 88.7551 28.3834C89.462 27.0262 89.8155 25.1459 89.8155 22.7424V17.6103C89.8155 15.2352 89.462 13.3831 88.7551 12.0541C88.0765 10.6969 86.8324 10.0183 85.0227 10.0183C83.2131 10.0183 81.9548 10.6969 81.2479 12.0541C80.5693 13.3831 80.23 15.2352 80.23 17.6103V22.7848C80.23 25.16 80.5693 27.0262 81.2479 28.3834C81.9548 29.7124 83.2131 30.3769 85.0227 30.3769ZM101.293 35L93.4465 5.39517H100.53L104.008 20.4521L105.746 28.9772H106.086L107.867 20.4521L111.388 5.39517H118.131L110.285 35H101.293Z" fill="#1BFF07"/>
</svg>
